<svg xmlns="http://www.w3.org/2000/svg" viewBox="0 0 551.69357 547.68705"><path d="M828.084,394.751c-.502-6.8062-.86722-11.7256-1.26172-17.104-4.9405-5.5508-10.2764-11.5459-16.4229-18.4449C811.44628,373.7026,815.11818,385.4854,828.084,394.751Z" transform="translate(-439.29979 -263.59731)" style="fill:none"/><path d="M832.58788,447.3247c-3.0693,5.02-4.1445,10.2192-2.3086,16.1138,3.2266,10.3769,7.6152,14.0058,18.7959,14.7016a.14737.14737,0,0,0-.0078-.0576v-.0039c-10.4229-7.5815-17.4033-16.9888-16.3789-30.6406-.0313-.0405-.06448-.0791-.0977-.1182Z" transform="translate(-439.29979 -263.59731)" style="fill:none"/><path d="M754.97168,308.6577a193.03858,193.03858,0,0,1,11.0371,18.481c3.4209,6.5117,6.1601,12.5429,8.2324,17.5053,4.4033,13.3819,9.71,26.4839,15.3965,39.4859,3.27832,7.5014,5.8311,15.3393,8.4414,23.1133,1.0537,3.1338,1.3701,6.519,2.374,11.5464-3.7656-2.1587-6.039-3.292-8.126-4.6978-24.497-16.5083-51.5478-25.5083-81.0219-25.8814-24.3257-.3012-47.4317,5.8877-69.3194,16.5088-10.75678,5.2203-21.0913,11.1514-30.1987,19.6783a47.50629,47.50629,0,0,0,6.0747-1.3702c24.2749-8.7773,49.1817-14.7871,75.0127-16.0493,18.2798-.9038,36.2661,1.4556,53.4487,8.0894a66.89813,66.89813,0,0,1,24.0459,15.4399c1.1895,1.2266,2.4092,2.4385,3.4707,3.772,7.086,8.9072,6.9854,13.791-1.1689,22.9062,6.6406,4.3887,13.0596,8.8423,19.6787,12.9659,7.2715,4.5249,14.8662,8.5337,22.0449,13.1806a75.45261,75.45261,0,0,1,12.8868,10.1265c7.0136,7.1138,6.9775,13.2739.6591,20.8545-1.6992,2.0366-3.5771,3.9224-6.94138,7.5864,24.08208-2.6743,45.93948-4.9258,67.40428-15.9057-5.8955-2.5884-13.0166-2.4742-12.3281-10.8931-7.2568.437-13.3525-1.0972-15.8916-8.7778-3.292-.1509-6.2822-.2945-10.14058-.4737-.32912-2.6318-.64552-5.1636-.96782-7.709-11.1807-.6958-15.5693-4.3247-18.7959-14.7016-1.8359-5.8946-.7607-11.0938,2.3086-16.1138l.0029-.0049c.03322.0391.0664.0777.0977.1182.0088-.105.0117-.2075.02052-.313l.001-.0015-.001.001v-.0015l-.042.0372-.12212.1069c.667-1.1333,1.334-2.2593,2.6182-4.4463,7.4433,11.0801,17.9922,14.6221,30.0195,15.5474,3.1123.2368,6.10942,2.5175,9.0645,4.0376,1.4697.7602,2.6601,2.6679,4.081,2.79,6.1524.523,7.8018,4.6611,8.0391,9.1147,4.1299.8106,8.8135.3658,10.6914,2.4527,2.0801,2.3159,1.5996,6.9419,2.31742,11.0513,2.68848-1.334,5.37788-2.6685,8.78418-4.3604.33,2.9331.63182,5.6865,1.00482,8.9712,13.61038-.832,13.48928-12.9087,18.15728-21.3774,2.2451.2504,4.4179.4873,6.7636.7456a10.09779,10.09779,0,0,0,1.20412-2.7466,17.72564,17.72564,0,0,0-6.31832-15.6128c-7.4649-6.4756-15.4541-12.356-23.3789-18.2798-6.84078-5.106-14.1992-9.5664-20.7041-15.0527-2.5879-2.1802-4.3448-6.1958-4.9912-9.6529-1.0176-5.4931,2.5898-8.3974,8.0546-7.1714,2.5235.5665,4.919,1.6998,9.1143,3.2061-2.6816-7.9106-6.1387-13.3892-10.585-17.8711-9.6318-9.689-19.3349-19.4062-29.833-28.1265-19.6425-16.3295-34.4296-35.6137-41.8886-59.5586q-1.51767-4.89465-2.6319-10.0473c-.3515-1.6138-.6738-3.2344-.9892-4.8623-.3301-2.1157-.7032-4.2095-1.1338-6.2534-5.0772-24.1675-8.7842-14.0777-8.7842-14.0777l-1.5566,21.3711q-.5274,6.00225-.9395,12.0908-.40875,5.88435-.8027,11.8472l-1.0615,14.5366q-2.25885-4.3887-4.6397-8.3618a.25569.25569,0,0,0-.0361-.0718c-9.55958-16.021-20.3604-27.2011-31.0742-34.9677-29.7608-21.5791-58.8555-16.9248-58.8555-16.9248C725.168,272.3701,742.56538,290.3926,754.97168,308.6577Zm71.8506,68.9893c.3945,5.3784.75972,10.2978,1.26172,17.104-12.96582-9.2656-16.63772-21.0484-17.68462-35.5489C816.54588,366.1011,821.88178,372.0962,826.82228,377.647Z" transform="translate(-439.29979 -263.59731)" style="fill:#210535"/><path d="M599.14967,431.10443a1.68306,1.68306,0,0,1,.26042-.485,107.289,107.289,0,0,1,24.71-22.89926c19.87992-13.5303,41.98-21.1401,65.8701-24.23,34.5401-4.4604,66.7295,1.9097,96.8594,19.21a13.08257,13.08257,0,0,0,1.91748.83908,1.63032,1.63032,0,0,0,2.04007-2.24251q-3.15569-6.36273-5.96-12.57426a1.60555,1.60555,0,0,1-.11325-.35613A183.71226,183.71226,0,0,0,769.46,342.6401a144.15723,144.15723,0,0,0-15.33992-24.5903,123.73162,123.73162,0,0,0-12.2402-13.5298c-.3096-.2998-.62988-.6001-.9395-.8901A113.45807,113.45807,0,0,0,727.71,293.0498c-20.73-14.1997-48.66022-23.0596-86.25982-20.3896-2.3203.1699-4.6704.3798-7.0703.6298l2.6899.6202,5.80478,1.35817a1.62738,1.62738,0,0,1,.05776,3.15709c-19.47117,5.22044-78.7093,23.61289-121.63253,63.72444a172.24156,172.24156,0,0,0-18.52,20.1602q-1.83772,2.36073-3.58763,4.8004a1.629,1.629,0,0,0,2.02582,2.41281l.20053-.095a1.62788,1.62788,0,0,1,1.85914,2.6155A222.961,222.961,0,0,0,457.23,440.2402a274.8965,274.8965,0,0,0-17.93021,97.96q0,6.375.29,12.6699.40675,4.84443,1.01877,9.798a1.62978,1.62978,0,0,0,3.13334.38882l1.98864-5.06132a1.62769,1.62769,0,0,1,3.14414.61564c-.36835,21.24211,2.11753,73.79841,31.06521,125.63877a218.42764,218.42764,0,0,0,45.42,56.75l-.0601-.8701-.762-11.796a1.62771,1.62771,0,0,1,3.0701-.8557c10.04326,19.65022,44.37468,67.10032,146.87844,84.85971a1.635,1.635,0,0,0,1.898-1.81866l-1.78538-13.69444a1.61361,1.61361,0,0,0-.53934-1.00621C595.791,725.39555,585.81274,591.5298,587.16989,514.96v-.0098c-9.805-38.73261,3.141-69.3387,10.49011-81.9302" transform="translate(-439.29979 -263.59731)" style="fill:#3a1463"/><path d="M639.33978,652.9404c-1.3896-1.9306-2.7299-3.8603-4.04-5.79-.6099-.9004-1.2197-1.8008-1.8096-2.7002a1.36848,1.36848,0,0,1-.1303-.2002c-.6397-.9697-1.2701-1.9404-1.8897-2.9004-.6001-.9297-1.18018-1.8496-1.76018-2.7793-.10012-.1699-.21-.3301-.31012-.5-.52-.8398-1.04-1.6904-1.5498-2.54-1.21-1.9903-2.3799-3.9903-3.52-5.9805q-.78-1.3653-1.5303-2.7295-.81-1.456-1.58978-2.9101-2.34018-4.3506-4.46982-8.6797-1.42527-2.896-2.74018-5.7705c-.89992-1.92-1.75-3.8301-2.56982-5.7403-.4204-.9599-.8301-1.9101-1.23-2.8593-.3901-.9502-.79-1.9004-1.1704-2.8506-.3897-.9395-.77-1.8897-1.1397-2.8301-.37008-.9492-.7402-1.8897-1.0903-2.8301-.3599-.9199-.6997-1.8398-1.04-2.7598-.3799-1.0195-.75-2.0302-1.0996-3.0498-.62018-1.7197-1.20018-3.4199-1.7701-5.1201-.0302-.0898-.06-.1699-.08-.25-.31008-.9297-.6099-1.8496-.8999-2.7695q-.49515-1.5162-.96-3.0303c-.41018-1.3398-.8101-2.6699-1.1904-3.9902q-.29955-.9903-.5699-1.9795c-.3198-1.1309-.6298-2.25-.9301-3.3701q-1.42455-5.22075-2.5796-10.2998c-.14018-.6006-.2803-1.2002-.41018-1.8008-.14012-.6299-.27982-1.25-.41012-1.8799-.1397-.6201-.2701-1.2402-.39988-1.8594-.25982-1.2402-.50982-2.4707-.75-3.7002-.25-1.2705-.48981-2.5205-.71-3.7705-.10991-.5595-.21-1.1093-.29981-1.6699-.1104-.5996-.21-1.1894-.3101-1.7798-.14009-.79-.27-1.5698-.39009-2.3501-.12011-.7597-.24021-1.52-.35011-2.27-.37989-2.4097-.71-4.7798-1-7.0898-.0898-.67-.16989-1.3399-.25-2.0103q-1.9197-5.3847-3.23-10.5898c-1.3598,76.7197,8.66019,210.9599,87.35011,279.2597,0,0,28.70018,22.0498,83.18018,16.0205a.19671.19671,0,0,0,.0693-.0097c23.48052-2.6006,51.7403-10.4307,84.5606-27.4805l-.4297-.25L828.71,774.8604C732.26948,747.7402,674.16988,701.4297,639.33978,652.9404Z" transform="translate(-439.29979 -263.59731)" style="fill:#543884"/><path d="M977.50978,455.75v-.0098a.0527.0527,0,0,1-.0196-.04A197.48629,197.48629,0,0,1,981.46,495.1699c0,108.5303-87.96982,196.5-196.5,196.5a198.95366,198.95366,0,0,1-22.36042-1.2597,195.34585,195.34585,0,0,1-83.9194-29.9405c11.2597-1.0595,22.9199-6.1494,36.77982-15.4199,2.54-1.7002,5.02-3.4795,7.46968-5.3096,13.4404-10.0605,25.8301-21.9804,39.8105-33.6406,10.75,5.4902,24.1299,6.6699,37.8594-1.0498,2.0303-1.1396,7.4805.4697,8.96,2.5303,1.8603,2.5898,1.79,6.9902,1.5107,10.5303-.1504,1.8994-2.5,3.6201-4.5205,6.29,4.66022-.8408,8.16022-1.1699,11.49022-2.1406,7.05958-2.0596,15.87988-1.96,14.21978-13.7901-2.4502-17.4697-5.96-21.8799-19.3399-22.6601-10.2803-.6094-20.5195-1.7793-30.7803-2.6992,7.2002-7.6407,14.7803-15.6807,23.4102-17.0206,8.5606-1.3398,18.1699,4.0899,30,7.2706-5.54978-8.9502-9.7295-16.1807-14.3994-23.0801-5.1807-7.6699-11.5908-10.21-20.7608-5.5703-10.42958,5.2705-21.5097,9.29-32.2792,13.9101-6.4405,2.7598-11.3409,2.1299-15.1202-4.7402-3.79-6.8897-7.5-14.5298,1.2793-18.6797,7.5508-3.5703,16.8301-3.4902,25.6709-5.0903-3.1601-12.2598-14.5908-10.23-25.3603-11.6001-33.1602-4.2198-37.5,2.8603-25.2998,36.1699,4.7998,13.1201,2.4394,24.75-6.75,34.8799a58.14689,58.14689,0,0,1-26.0904,16.3408c-16.2797,4.9892-34.6201,3.2793-49.2397-5.9805a128.63112,128.63112,0,0,1-26.6201-22.2998,126.48612,126.48612,0,0,1-21.1499-32.1299,134.59162,134.59162,0,0,1-7.31009-15.3701c-.16009.1397-.31.27-.4702.4097q-.26955-1.47-.5098-2.94c-.2602-.6796-.5-1.3598-.7402-2.04.08011.6704.1602,1.3403.25,2.0103.29,2.31.62011,4.6801,1,7.0898.1099.75.23,1.5103.35011,2.27.12009.7803.25,1.5601.39009,2.3501.1001.5904.1997,1.1802.3101,1.7798.08981.5606.1899,1.1104.29981,1.6699.22019,1.25.46,2.5.71,3.7705.24018,1.2295.49018,2.46.75,3.7002.12978.6192.26018,1.2393.39988,1.8594.1303.6299.27,1.25.41012,1.8799.12988.6006.27,1.2002.41018,1.8008q1.155,5.06985,2.5796,10.2998c.3003,1.1201.6103,2.2392.9301,3.3701q.2703.9888.5699,1.9795c.3803,1.3203.78022,2.6504,1.1904,3.9902q.4644,1.5147.96,3.0303c.29.9199.58982,1.8398.8999,2.7695.02.0801.0498.1602.08.25.56992,1.7002,1.14992,3.4004,1.7701,5.1201.3496,1.0196.7197,2.0303,1.0996,3.0498.3403.92.6801,1.8399,1.04,2.7598.3501.9404.72022,1.8809,1.0903,2.8301.3697.9404.75,1.8906,1.1397,2.8301.3804.9502.7803,1.9004,1.1704,2.8506.3999.9492.8096,1.8994,1.23,2.8593.81982,1.9102,1.6699,3.8203,2.56982,5.7403q1.31982,2.87985,2.74018,5.7705,2.13,4.3344,4.46982,8.6797.78,1.45455,1.58978,2.9101.75,1.3653,1.5303,2.7295c1.1401,1.9902,2.31,3.9902,3.52,5.9805.5098.8496,1.0298,1.7002,1.5498,2.54.10012.1699.21.3301.31012.5.58.9297,1.16008,1.8496,1.76018,2.7793.6196.96,1.25,1.9307,1.8897,2.9004a1.36848,1.36848,0,0,0,.1303.2002c.5899.8994,1.1997,1.7998,1.8096,2.7002,1.3101,1.9297,2.6504,3.8594,4.04,5.79,34.8301,48.4893,92.9297,94.7998,189.37022,121.92,0,0,38.50968-.4708,81.95018-43.2002a.20476.20476,0,0,1,.04982-.0498,234.58858,234.58858,0,0,0,22.65038-26.0108c.2695-.3301.5195-.6797.7695-1.0195q4.31985-5.7744,8.6006-12.1905L930.54,694.54s18.82038-9.0498,36.15038-45.1298c.0098-.0303.0293-.0704.0401-.1006,7.0498-14.6992,13.8496-33.8799,19.0293-58.7598l-.8096.7305L978.59958,597c.2402-.5498,8.1201-18.2598,11.18069-46.25A203.60106,203.60106,0,0,0,977.50978,455.75Z" transform="translate(-439.29979 -263.59731)" style="fill:#9a77cf"/><path d="M497.46,513.5" transform="translate(-439.29979 -263.59731)" style="fill:#ff6700"/></svg>